<?xml version="1.0" encoding="UTF-8"?>
<svg version="1.1" xmlns="http://www.w3.org/2000/svg" width="512" height="512">
<path d="M0 0 C1.98 0 3.96 0 6 0 C6.33 1.65 6.66 3.3 7 5 C7.82628906 4.67902344 8.65257812 4.35804687 9.50390625 4.02734375 C25.90164096 -0.79120846 41.01977146 6.13383175 55.83203125 12.64453125 C63.24763235 15.81742099 70.35483236 18.16380271 78.484375 18.0625 C79.50144531 18.05476563 80.51851563 18.04703125 81.56640625 18.0390625 C83.14228516 18.01972656 83.14228516 18.01972656 84.75 18 C86.84890828 17.97462021 88.94787459 17.95354332 91.046875 17.9375 C91.97338867 17.92589844 92.89990234 17.91429688 93.85449219 17.90234375 C96 18 96 18 97 19 C96.85571506 23.17928791 96.63762117 25.33087795 93.70703125 28.40625 C92.75183594 29.0971875 91.79664063 29.788125 90.8125 30.5 C86.18688071 34.01137506 82.58447033 37.4467539 79 42 C84.44946255 49.87209982 84.44946255 49.87209982 90.9375 56.875 C93.08183594 58.92610394 93.97683346 59.94337068 95.125 62.75 C95 65 95 65 93.72851562 66.56762695 C85.23786321 73.60359556 66.57827406 72.94556749 56.09521484 72.22314453 C50.74881242 71.65374208 45.96716053 69.97771869 41 68 C38.67789513 67.08609587 36.35507496 66.17406143 34.03149414 65.26391602 C32.46753075 64.64559753 30.90779223 64.01644465 29.35327148 63.37475586 C21.70378443 60.2772553 16.42513697 59.94685788 8 61 C8 72.22 8 83.44 8 95 C9.65 95.33 11.3 95.66 13 96 C15.38671875 97.55859375 15.38671875 97.55859375 17.6875 99.4375 C18.45449219 100.05496094 19.22148437 100.67242187 20.01171875 101.30859375 C22 103 22 103 24 105 C26.82047923 105.30726354 26.82047923 105.30726354 30.18496704 105.25828552 C30.82623264 105.26196123 31.46749823 105.26563693 32.12819612 105.26942402 C34.28687857 105.27944054 36.44530526 105.275246 38.60400391 105.27124023 C40.14795202 105.2756254 41.69189776 105.28092678 43.23583984 105.28707886 C46.56653924 105.29859966 49.89717483 105.30403982 53.22789383 105.30496025 C58.49788467 105.30689808 63.76774349 105.32493735 69.03768921 105.34571838 C82.1332436 105.39495526 95.22883409 105.42575916 108.32446289 105.44702148 C118.49017978 105.46355594 128.65578417 105.48641846 138.8214258 105.53004223 C144.05610088 105.55179074 149.29056215 105.5598789 154.52527928 105.55764949 C157.79034804 105.55932098 161.05527838 105.57339944 164.32029724 105.59086227 C165.82950709 105.59644335 167.33874586 105.59696405 168.84795761 105.59192467 C179.42202157 105.56033201 187.81823813 106.1064675 195.87890625 113.6171875 C200.05958027 118.31370896 203.34322951 123.64563199 206.69677734 128.9453125 C207.95663969 130.93163725 209.23405948 132.90517277 210.51953125 134.875 C216.76667604 144.45592917 222.91427754 154.10154079 229.06982422 163.74145508 C232.1358854 168.54020417 235.20842614 173.3335607 238.328125 178.09765625 C238.82699219 178.86078125 239.32585937 179.62390625 239.83984375 180.41015625 C240.73975457 181.78370435 241.64305886 183.15503919 242.55078125 184.5234375 C248.08953896 192.98295491 251.46979701 199.59143749 250 210 C247.65788933 214.41397779 244.61435732 216.21075941 240 218 C238.33396668 218.04594286 236.66580604 218.05355383 235 218 C235.00752792 219.10406693 235.01505585 220.20813385 235.02281189 221.34565735 C235.27291927 262.51212031 234.50360222 303.65443133 233.72039545 344.81135571 C233.57778774 352.32651976 233.4413202 359.84178599 233.30632645 367.35709018 C233.15799017 375.60811558 233.00563247 383.85906205 232.85142326 392.10997963 C232.78678369 395.57163655 232.72347687 399.03331377 232.66131783 402.4950161 C232.58823441 406.55454432 232.51157677 410.6139907 232.43231201 414.67340279 C232.404107 416.1454177 232.37704956 417.61745521 232.35133171 419.08951569 C232.17571663 429.08304165 231.69649117 439.03092178 231 449 C232.18753372 448.96950058 233.37506744 448.93900116 234.59858704 448.90757751 C250.71067758 448.51492553 250.71067758 448.51492553 257 453.625 C258.58990389 457.40102175 258.65407606 460.97491653 258 465 C255.90696321 468.51331175 253.8816874 470.66913575 250 472 C243.77858168 473.15577243 237.66666479 473.1308964 231.35253906 473.10411072 C230.20420341 473.10320926 229.05586777 473.10230781 227.87273407 473.10137904 C224.08700581 473.09712729 220.30133715 473.08562526 216.515625 473.07397461 C213.84474669 473.06932042 211.17387006 473.06503769 208.50299072 473.06117916 C201.64627246 473.05018856 194.78958768 473.03201684 187.93289185 473.01157522 C184.24098883 473.00070927 180.54908505 472.99095101 176.85717773 472.98167801 C162.03995915 472.94384275 147.22282555 472.89011455 132.40567875 472.83087611 C127.35170022 472.81087152 122.29771842 472.79176684 117.24373651 472.77264053 C88.13023695 472.66238873 59.01677493 472.54286199 29.90332031 472.42138672 C29.19563989 472.41843434 28.48795947 472.41548196 27.75883418 472.41244012 C13.4578615 472.35275767 -0.84310977 472.29275486 -15.14407592 472.23152332 C-22.91571119 472.19824827 -30.68734723 472.16515776 -38.45898438 472.13232422 C-39.49538676 472.12794504 -39.49538676 472.12794504 -40.55272657 472.1234774 C-62.80499187 472.02961074 -85.05728277 471.95041954 -107.30963898 471.88109493 C-124.43746036 471.82757301 -141.56522896 471.76484615 -158.69298553 471.69350529 C-169.35425927 471.64948435 -180.01548738 471.61416586 -190.67682576 471.59035581 C-197.82606419 471.57359045 -204.97520917 471.5462062 -212.1243751 471.5099259 C-216.18091818 471.48966208 -220.23732596 471.47421188 -224.29392242 471.47194099 C-227.95344952 471.46983044 -231.61265022 471.45425826 -235.27207756 471.42745864 C-237.21523566 471.41682767 -239.15845711 471.42098499 -241.10163879 471.42560673 C-242.24277634 471.41451594 -243.38391388 471.40342516 -244.55963135 471.39199829 C-245.54567478 471.38868814 -246.53171822 471.385378 -247.54764175 471.38196754 C-250.41371772 470.93556132 -251.26383942 470.27302868 -253 468 C-254.88262368 464.23475264 -254.64295749 460.09043432 -254 456 C-251.31512042 450.98326998 -247.27629487 448.02070867 -242 446 C-235.104876 444.6209752 -228.01798074 444.4386238 -221 444 C-221 369.75 -221 295.5 -221 219 C-224.3 219 -227.6 219 -231 219 C-238.06103286 216.35211268 -238.06103286 216.35211268 -240.5625 212.75 C-241.72634072 205.43442976 -239.44789556 200.12678552 -235.8125 194 C-235.37325195 193.23655273 -234.93400391 192.47310547 -234.48144531 191.68652344 C-233.51596717 190.01342778 -232.54416784 188.34396786 -231.56689453 186.67773438 C-229.93186615 183.8835631 -228.32189753 181.07596911 -226.71484375 178.265625 C-219.34586026 165.43580152 -211.64647864 152.85066101 -203.58691406 140.44335938 C-202.11043501 138.17003593 -200.64467731 135.89010967 -199.1796875 133.609375 C-185.35851078 112.26301911 -185.35851078 112.26301911 -173.25984573 108.45183659 C-170.38788564 107.87761303 -167.69444219 107.88525853 -164.76434326 107.89561462 C-163.48304031 107.89738708 -162.20173737 107.89915955 -160.88160706 107.90098572 C-159.46371447 107.90783996 -158.04582201 107.91472262 -156.62792969 107.92163086 C-155.13295099 107.92514777 -153.63797092 107.92811461 -152.14299011 107.93057251 C-148.92419346 107.93624371 -145.70541366 107.94425524 -142.48662567 107.95359612 C-137.39293776 107.96678167 -132.29932545 107.96503978 -127.20562744 107.95936584 C-126.34548656 107.95844576 -125.48534568 107.95752568 -124.59913993 107.95657772 C-121.9502077 107.95360653 -119.30127574 107.95044165 -116.65234375 107.94726562 C-105.68556952 107.93447457 -94.71915283 107.93247256 -83.75244141 107.97583008 C-75.75214091 108.00735406 -67.75238451 108.0106105 -59.75206876 107.98107058 C-55.52050496 107.9665376 -51.2900294 107.96629319 -47.0585556 108.00047112 C-43.07546829 108.03236628 -39.09416352 108.02677316 -35.11110878 107.99296951 C-33.65347728 107.98716995 -32.19571591 107.99491372 -30.73824883 108.01756096 C-22.6670967 108.27406158 -22.6670967 108.27406158 -15.43909454 105.24121284 C-13.30153382 103.16492983 -13.30153382 103.16492983 -11.59885025 100.95954227 C-9.14645199 97.95389614 -6.48602977 96.6404846 -3 95 C-2.01 95 -1.02 95 0 95 C-0.03029297 94.13689209 -0.06058594 93.27378418 -0.09179688 92.38452148 C-0.82421569 70.67252903 -1.109423 48.97443285 -1.125 27.25 C-1.12874634 25.3905928 -1.12874634 25.3905928 -1.13256836 23.49362183 C-1.13842504 19.95926064 -1.13698859 16.42498702 -1.1328125 12.890625 C-1.13578842 11.28221489 -1.13578842 11.28221489 -1.13882446 9.64131165 C-1.13571259 8.66171982 -1.13260071 7.68212799 -1.12939453 6.67285156 C-1.12859894 5.81483948 -1.12780334 4.95682739 -1.12698364 4.07281494 C-1 2 -1 2 0 0 Z " fill="#050302" transform="translate(254,20)"/>
<path d="M0 0 C9.67209338 4.43135659 16.21772544 13.12018639 22.71484375 21.2109375 C24.90460801 23.88357285 27.17111198 26.44834878 29.5 29 C33.41891252 33.29991791 37.09170869 37.75919547 40.75 42.28125 C42.93501569 44.92147729 45.19171391 47.4672972 47.5 50 C51.41891252 54.29991791 55.09170869 58.75919547 58.75 63.28125 C61.64593537 66.78050524 64.69829956 70.12062616 67.7578125 73.4765625 C70.80329506 76.90405681 73.66688899 80.45637397 76.46582031 84.08740234 C78.8591318 87.0628572 78.8591318 87.0628572 81.83154297 89.03613281 C86.56397169 92.76269219 89.44689702 96.06188148 90.58636475 102.11480713 C91.3933502 111.07368727 91.09428112 120.05556663 90.81541824 129.03414536 C90.70441242 133.00625606 90.65837909 136.97916207 90.60522461 140.95239258 C90.50038366 148.12965966 90.34421416 155.3045799 90.1611681 162.48024273 C89.99257492 169.12823107 89.87265296 175.77645553 89.76953125 182.42578125 C89.67072603 188.56817234 89.56527436 194.71012581 89.42871094 200.85180664 C89.09525299 215.98666315 88.89689147 231.12020857 88.74609375 246.2578125 C88.73573153 247.28365511 88.7253693 248.30949772 88.71469307 249.36642647 C88.60970726 259.77099863 88.50907721 270.17559033 88.41948795 280.58030701 C88.38489516 284.49559602 88.34668227 288.41084445 88.30768013 292.32609177 C88.29025427 294.16373569 88.27448302 296.00139616 88.26048088 297.83906937 C88.24097044 300.38666742 88.21581642 302.93415437 88.18945312 305.48168945 C88.1852665 306.2155421 88.18107988 306.94939474 88.1767664 307.70548534 C88.11465483 312.91697294 87.58260921 317.75651709 87 323 C73.47 323 59.94 323 46 323 C45.86379595 285.81629538 45.86379595 285.81629538 46.5 273.5625 C46.88192372 266.02036681 47.16502615 258.48955109 47.25 250.9375 C47.27126953 250.02621338 47.29253906 249.11492676 47.31445312 248.17602539 C47.34209696 242.94689715 46.73204373 239.6085264 44 235 C44 234.34 44 233.68 44 233 C33.95623579 227.59548391 22.88183328 227.5370627 11.76171875 227.56640625 C10.2262194 227.56183287 8.69072209 227.5565239 7.15522766 227.55052185 C3.96074013 227.54165465 0.76650353 227.54394412 -2.42797852 227.55395508 C-6.5077182 227.56549968 -10.58659932 227.54511795 -14.66622639 227.51603794 C-17.82766643 227.49765046 -20.98890097 227.49797234 -24.15038109 227.50367546 C-25.65458579 227.50382803 -27.15880499 227.49783733 -28.66295815 227.48538399 C-39.55016827 227.22819255 -39.55016827 227.22819255 -49 232 C-53.34437243 237.60195392 -54.15210276 241.87225411 -54.20532227 248.77612305 C-54.21522186 249.56660034 -54.22512146 250.35707764 -54.23532104 251.17150879 C-54.26691393 253.78488162 -54.29168474 256.39827263 -54.31640625 259.01171875 C-54.33697769 260.82347588 -54.35797421 262.63522823 -54.37937927 264.44697571 C-54.43458035 269.21611664 -54.48399831 273.98530074 -54.53222656 278.7545166 C-54.59128677 284.47645034 -54.65750396 290.19830515 -54.72252655 295.92017365 C-54.82051138 304.6134009 -54.90938432 313.30667873 -55 322 C-70.51 322 -86.02 322 -102 322 C-102.01160156 316.58980469 -102.02320313 311.17960937 -102.03515625 305.60546875 C-102.03984924 303.69123108 -102.04454224 301.77699341 -102.04937744 299.80474854 C-102.07060414 289.69196595 -102.05416882 279.58038921 -101.99121094 269.46777344 C-101.96657817 264.95639076 -101.94520782 260.44500173 -101.92578125 255.93359375 C-101.92046261 254.76999454 -101.91514397 253.60639534 -101.90966415 252.40753555 C-101.85120804 236.54054147 -102.09683423 220.70713418 -102.62586498 204.85099888 C-103.01460441 193.15966698 -103.28026694 181.46904338 -103.47250843 169.77285671 C-103.59614481 162.58694743 -103.78762632 155.41511235 -104.14334106 148.23666382 C-106.56066279 98.45292901 -106.56066279 98.45292901 -90.69246292 80.82681656 C-84.03882322 73.95917871 -76.7488486 67.89509157 -69.0557251 62.23297119 C-64.74593025 58.97912974 -61.44827235 55.12550371 -58 51 C-56.62297677 49.55331334 -55.23031732 48.12108351 -53.81225586 46.71459961 C-53.07136215 45.97700912 -52.33046844 45.23941864 -51.56712341 44.47947693 C-50.79087112 43.71152298 -50.01461884 42.94356903 -49.21484375 42.15234375 C-48.39552872 41.33681534 -47.57621368 40.52128693 -46.73207092 39.68104553 C-44.13631089 37.09740533 -41.53732858 34.51704571 -38.9375 31.9375 C-35.50617427 28.53288957 -32.07825427 25.12490226 -28.65234375 21.71484375 C-27.87406723 20.94486557 -27.09579071 20.17488739 -26.29393005 19.38157654 C-22.42201876 15.52700165 -18.70342836 11.62729274 -15.21583557 7.4197998 C-11.23329029 2.76915695 -6.34469891 -1.4539935 0 0 Z " fill="#F6D586" transform="translate(261,140)"/>
<path d="M0 0 C0.83145727 0.00184359 1.66291454 0.00368717 2.51956749 0.00558662 C3.47311623 0.0028373 4.42666496 0.00008797 5.40910912 -0.00274467 C6.45855202 0.00444588 7.50799492 0.01163643 8.58923912 0.01904488 C9.69168465 0.01875282 10.79413017 0.01846077 11.92998314 0.01815987 C15.58780243 0.01955744 19.24542009 0.03513886 22.90320396 0.05078316 C25.43383231 0.05451176 27.96446209 0.05735945 30.49509239 0.0593586 C36.48390652 0.06622455 42.47263359 0.08200053 48.46141279 0.10205758 C55.27873153 0.12439496 62.09605372 0.13540456 68.91339993 0.14544845 C82.93868747 0.16636621 96.96391049 0.20155567 110.98914146 0.24609566 C111.03569595 15.16314644 110.98836106 30.06937093 110.64919472 44.98283005 C110.58366929 47.86412821 110.52170585 50.74548732 110.46042442 53.62687874 C110.37210271 57.76412067 110.28240944 61.90132914 110.19150352 66.03851509 C109.95220421 76.94738774 109.72320153 87.85647657 109.49695396 98.76562691 C109.47431669 99.85522209 109.45167942 100.94481728 109.42835617 102.0674305 C108.96160177 124.64635847 108.61529935 147.22622797 108.35443592 169.80843449 C108.11634245 190.29571193 107.60912569 210.76732868 106.98914146 231.24609566 C96.85798807 230.89302016 86.7269596 230.53654809 76.5960598 230.17626572 C71.88680705 230.00888751 67.177525 229.84248546 62.46814537 229.67871284 C36.29491135 228.76757531 10.14152975 227.63396511 -16.01085854 226.24609566 C-16.22374003 191.49532123 -15.67115351 156.7513487 -15.1766361 122.00523913 C-15.09580664 116.31057005 -15.01756727 110.61586956 -14.94079018 104.92114449 C-13.99856814 35.07265116 -13.99856814 35.07265116 -13.01085854 4.24609566 C-12.38437416 4.12492378 -11.75788979 4.00375191 -11.11242104 3.87890816 C-10.29515541 3.71133003 -9.47788979 3.54375191 -8.63585854 3.37109566 C-7.82374916 3.20867378 -7.01163979 3.04625191 -6.17492104 2.87890816 C-3.52300164 2.10343714 -2.73203315 0.33435544 0 0 Z " fill="#F1B06C" transform="translate(371.0108585357666,237.75390434265137)"/>
<path d="M0 0 C11.92607692 -0.13893419 23.85196178 -0.24558785 35.77868271 -0.31087303 C41.31661279 -0.3422047 46.85398982 -0.38471184 52.39160156 -0.45263672 C57.73437189 -0.51776257 63.07660983 -0.55369221 68.4197464 -0.56926346 C70.45960118 -0.58036191 72.49942636 -0.60203476 74.53905487 -0.63438034 C77.39354219 -0.67785375 80.24582159 -0.68393795 83.10058594 -0.68115234 C83.94647278 -0.702724 84.79235962 -0.72429565 85.66387939 -0.746521 C87.93196325 -0.72252522 89.82596641 -0.64926504 92 0 C94.36871338 2.91757202 94.36871338 2.91757202 96 6 C99.65203254 8.43468836 102.75434213 8.69149944 107 8 C109.01190218 7.02416721 111.01322685 6.02602751 113 5 C113.03127851 21.6249911 113.05120975 38.24998329 113.0625 54.875 C113.06335602 56.12639141 113.06421204 57.37778282 113.06509399 58.66709518 C113.08908156 98.46842867 112.9067158 138.26297757 112.5 178.0625 C112.48804218 179.23329857 112.47608437 180.40409714 112.46376419 181.61037445 C112.31860538 195.7403575 112.16435575 209.87022748 112 224 C100.03762982 224.39442134 88.07516438 224.78580662 76.11257267 225.17345428 C70.55620074 225.35360099 64.99986516 225.53474254 59.44360352 225.71826172 C54.06848682 225.89575944 48.69328678 226.07050804 43.31802177 226.24345398 C41.28059212 226.30947077 39.24319279 226.37643166 37.20582771 226.44441223 C25.13199228 226.84656068 13.08075358 227.09488341 1 227 C0.82780487 204.35420641 0.66147059 181.70837252 0.5 159.0625 C0.49405146 158.2291919 0.48810292 157.39588381 0.48197412 156.53732395 C0.18447614 114.81668456 -0.10516597 73.09698434 -0.0625 31.375 C-0.06164398 30.53139545 -0.06078796 29.68779091 -0.05990601 28.81862259 C-0.04936264 19.21238771 -0.03089011 9.60619334 0 0 Z " fill="#F1B06C" transform="translate(40,238)"/>
<path d="M0 0 C19.15859313 -0.09351745 38.31713982 -0.1640155 57.475914 -0.20724869 C66.3720412 -0.22785782 75.26802643 -0.25594681 84.1640625 -0.30175781 C91.91951421 -0.34167616 99.67486308 -0.3674448 107.43041468 -0.37635398 C111.53546031 -0.3815603 115.64021178 -0.39376238 119.74516296 -0.42292023 C123.61279265 -0.45016852 127.48000835 -0.45842615 131.34772491 -0.45243073 C132.76343794 -0.45352678 134.17916551 -0.46142479 135.59479523 -0.4768219 C144.53549261 -0.5692558 150.9973087 -0.22725623 158.04443359 5.72753906 C162.75275231 11.41980157 166.71604725 17.48797322 170.625 23.75 C171.68680812 25.43046087 172.7486255 27.11091626 173.81158447 28.79064941 C174.87501714 30.47204971 175.93605295 32.15496516 176.99707031 33.83789062 C179.79238125 38.25096561 182.64193632 42.62741454 185.5 47 C190.20302972 54.21974594 194.88865561 61.450637 199.54711914 68.69921875 C200.59904162 70.33464251 201.65397555 71.96812803 202.70898438 73.6015625 C203.67674805 75.10976562 203.67674805 75.10976562 204.6640625 76.6484375 C205.23592285 77.53708496 205.8077832 78.42573242 206.39697266 79.34130859 C210.9632071 86.9146094 210.9632071 86.9146094 211.125 91.6875 C210 95 210 95 207.15061951 96.68574524 C202.04591418 98.64977418 196.86276362 98.39504344 191.46508789 98.34057617 C189.75180298 98.34123329 189.75180298 98.34123329 188.00390625 98.34190369 C184.24331334 98.33982021 180.48317091 98.31650912 176.72265625 98.29296875 C174.10949446 98.28737125 171.49632952 98.28310188 168.88316345 98.28010559 C162.71739959 98.27080267 156.55179639 98.24621289 150.38610309 98.21605712 C143.36312251 98.18245826 136.34013403 98.16601336 129.31709301 98.15097082 C114.87797935 98.11966159 100.43899193 98.06693546 86 98 C85.5156606 95.99245199 85.03132121 93.98490397 84.54698181 91.97735596 C82.33376202 83.97649881 75.18481263 77.71906015 69.6484375 71.828125 C67.60818963 69.64945324 65.62820643 67.45329939 63.6875 65.1875 C53.63526795 53.67270301 42.91742572 42.81437925 32.125 32 C31.53755005 31.40996185 30.9501001 30.81992371 30.34484863 30.21200562 C24.60759221 24.45484066 18.8866172 18.7495352 12.69873047 13.47167969 C10.00788287 11.14048835 7.51402082 8.64600421 5 6.125 C4.51144531 5.6403125 4.02289063 5.155625 3.51953125 4.65625 C0 1.12686012 0 1.12686012 0 0 Z " fill="#E96A65" transform="translate(286,133)"/>
<path d="M0 0 C1.41733932 -0.00306656 1.41733932 -0.00306656 2.86331177 -0.00619507 C5.97588769 -0.00919119 9.08792653 0.00927981 12.20043945 0.02832031 C14.40582652 0.03138771 16.61121554 0.03325636 18.81660461 0.03399658 C23.45251854 0.03859685 28.08825855 0.05298351 32.72412109 0.07519531 C38.54502866 0.10300156 44.36579837 0.11428242 50.18676567 0.11899567 C77.1800467 0.14322218 104.14729217 0.45965609 131.1262207 1.35644531 C127.17517842 6.08644551 123.06184614 10.5658715 118.69702148 14.91503906 C118.08476715 15.52904572 117.47251282 16.14305237 116.84170532 16.77566528 C114.83747155 18.78426373 112.82964516 20.78922468 110.8215332 22.79394531 C109.41423195 24.20192124 108.00707908 25.6100455 106.60006714 27.01831055 C103.65809594 29.96175151 100.71433558 32.90338808 97.76928711 35.84375 C94.01144076 39.5959048 90.25809521 43.35252461 86.50609016 47.11051941 C83.60298018 50.017259 80.69747273 52.92159278 77.79125595 55.82522583 C76.40716211 57.20865676 75.02379915 58.59281934 73.64120865 59.97775269 C60.57291401 73.0633301 60.57291401 73.0633301 54.70768738 78.00202942 C51.76027678 80.526281 49.04637612 83.29170096 46.3137207 86.04394531 C45.75491211 86.59888672 45.19610352 87.15382813 44.62036133 87.72558594 C44.07959961 88.26763672 43.53883789 88.8096875 42.98168945 89.36816406 C42.26468872 90.08685669 42.26468872 90.08685669 41.53320312 90.82006836 C40.03657058 92.36293903 40.03657058 92.36293903 38.82336521 94.42198467 C37.1262207 96.35644531 37.1262207 96.35644531 35.0291357 96.85142994 C34.21594655 96.84904159 33.4027574 96.84665323 32.56492615 96.8441925 C31.16211899 96.85460823 31.16211899 96.85460823 29.73097229 96.86523438 C28.70696823 96.85242432 27.68296417 96.83961426 26.62792969 96.82641602 C25.54805786 96.82860641 24.46818604 96.83079681 23.35559082 96.83305359 C19.77752301 96.83536966 16.20027291 96.8090816 12.62231445 96.78222656 C10.14274863 96.77730524 7.6631791 96.77400468 5.18360901 96.77226257 C-0.68247049 96.76363384 -6.54824694 96.73647453 -12.41422075 96.70106333 C-18.42519763 96.66606182 -24.43607844 96.65455574 -30.44714451 96.64582539 C-36.79901594 96.63586799 -43.1508433 96.61596228 -49.50268555 96.59472656 C-50.7218976 96.59133081 -51.94110966 96.58793507 -53.19726753 96.58443642 C-56.63319313 96.57290327 -60.06900327 96.55438914 -63.50488281 96.53344727 C-64.5309111 96.53075836 -65.55693939 96.52806946 -66.61405945 96.52529907 C-67.5464444 96.51814377 -68.47882935 96.51098846 -69.43946838 96.50361633 C-70.25228051 96.49934285 -71.06509264 96.49506937 -71.90253544 96.49066639 C-73.8737793 96.35644531 -73.8737793 96.35644531 -75.8737793 95.35644531 C-75.67182728 87.90547868 -71.80641911 82.4268323 -68.0612793 76.16894531 C-67.374271 75.00378055 -66.68816503 73.83808332 -66.00292969 72.671875 C-64.62124365 70.32564325 -63.23247297 67.98385657 -61.83666992 65.64599609 C-60.11571266 62.76189433 -58.40642222 59.87137062 -56.7019043 56.97753906 C-26.14029596 5.32224846 -26.14029596 5.32224846 -12.3604641 0.96030426 C-8.23399023 -0.04175606 -4.22782 -0.04472487 0 0 Z " fill="#E96A65" transform="translate(96.873779296875,134.6435546875)"/>
<path d="M0 0 C8.07052876 5.91511844 15.051 12.18080109 20 21 C20.50402344 21.84304687 21.00804687 22.68609375 21.52734375 23.5546875 C27.10311697 34.45910825 26.84025844 48.66223132 23.55712891 60.30883789 C21.22103907 67.39166346 17.79947641 73.3305574 13 79 C12.37738281 79.76828125 11.75476563 80.5365625 11.11328125 81.328125 C3.98121376 89.31604059 -7.18954206 95.92461413 -18 97 C-35.23600557 97.96477103 -49.73292977 95.20924549 -63.25 83.8125 C-73.81051166 73.805158 -79.87353574 60.45285339 -80.34399414 45.92236328 C-80.550469 30.62371417 -76.59494373 18.48610722 -66 7 C-46.61441263 -12.09097358 -22.3630518 -15.19469733 0 0 Z " fill="#DD6460" transform="translate(285,215)"/>
<path d="M0 0 C6.34847226 -0.00030116 12.69690118 -0.00840028 19.04536074 -0.02069944 C58.81273292 -0.0959104 98.55329798 0.10598819 138.30976504 1.10307986 C139.14048722 1.12377102 139.9712094 1.14446219 140.82710499 1.16578037 C173.06961641 1.97330955 205.2955663 3.1982101 237.51866001 4.56645745 C238.29060947 4.59923236 239.06255893 4.63200727 239.8579008 4.66577536 C240.5500108 4.69519415 241.2421208 4.72461295 241.95520383 4.75492322 C250.57471756 5.11942776 259.19515429 5.42784533 267.81757754 5.71636111 C271.23353341 5.83567626 274.64944877 5.95608145 278.06534976 6.07695681 C280.14830347 6.14793132 282.23141925 6.214328 284.31467837 6.27568728 C287.10918321 6.35834935 289.90265768 6.45733926 292.69648379 6.56011111 C293.49052615 6.57884279 294.28456851 6.59757448 295.10267276 6.6168738 C300.19250939 6.82540425 303.85360702 7.92357077 308.42695254 10.18511111 C308.17695254 12.06011111 308.17695254 12.06011111 307.42695254 14.18511111 C303.69564125 16.93942589 299.3403809 16.45448288 294.91416568 16.41910464 C294.04169841 16.42008794 293.16923115 16.42107123 292.27032548 16.42208433 C289.32325711 16.42290278 286.37642916 16.40928669 283.42939395 16.39580446 C281.29949541 16.39333672 279.16959573 16.39173657 277.03969592 16.39093119 C271.15849462 16.38606393 265.2773887 16.36846446 259.39622086 16.34876281 C253.04511822 16.32957402 246.69399983 16.32173576 240.34287661 16.31229311 C227.79895359 16.29160818 215.25508506 16.25936883 202.7111991 16.22286487 C192.32035502 16.192696 181.92950707 16.16640297 171.53864688 16.14244753 C136.78114498 16.06178053 102.02373368 15.9626272 67.26633471 15.84573466 C66.05594911 15.84166411 66.05594911 15.84166411 64.82111128 15.83751132 C63.60980654 15.83343662 63.60980654 15.83343662 62.37403101 15.8292796 C61.1618589 15.8252022 61.1618589 15.8252022 59.92519847 15.82104243 C58.29121605 15.81554395 56.65723365 15.81004036 55.02325127 15.80453168 C42.66433631 15.76292472 30.30541445 15.72442195 17.94648379 15.68779665 C-125.06545122 15.26303385 -125.06545122 15.26303385 -189.57304746 14.18511111 C-188.83085996 9.45854861 -188.83085996 9.45854861 -186.51054746 6.99761111 C-179.74007672 2.8200866 -172.14880702 2.81845051 -164.41289121 2.58745486 C-163.31489698 2.54826433 -162.21690274 2.50907381 -161.08563596 2.4686957 C-158.74148902 2.3866707 -156.39719489 2.30876321 -154.05278379 2.23467165 C-150.65617931 2.12721825 -147.26017756 2.00813576 -143.86406308 1.88628298 C-136.84341988 1.6416434 -129.82180553 1.43922632 -122.799568 1.24702746 C-120.52321454 1.18372532 -118.24697121 1.11719356 -115.97072202 1.05025393 C-77.3210681 -0.06858701 -38.66206782 -0.00268975 0 0 Z " fill="#8F4F4F" transform="translate(196.57304745912552,468.81488889455795)"/>
<path d="M0 0 C9.00769851 5.97195481 16.3141021 13.44944456 19.08203125 24.26953125 C20.61067441 34.93643679 19.00494414 45.12141786 12.6875 54.0625 C6.83186633 61.12154711 -0.17681446 67.96322651 -9.65722656 68.97314453 C-22.35052376 69.81426663 -32.58368321 68.63614257 -42.75 60.4375 C-49.60719684 54.05321329 -54.30846741 46.09861846 -54.91015625 36.6484375 C-55.16546577 29.04878 -55.13383604 21.63368207 -51.5625 14.75 C-50.99402344 13.63431641 -50.99402344 13.63431641 -50.4140625 12.49609375 C-45.29035673 3.74433043 -36.56844131 -2.2478781 -27.1015625 -5.62890625 C-16.65468613 -8.18437293 -8.85402721 -5.36060151 0 0 Z " fill="#FCFCFC" transform="translate(275.5625,227.25)"/>
<path d="M0 0 C5.75702163 2.45206477 9.4508899 6.25243541 13.76171875 10.72265625 C15.69053405 12.68513325 17.64976933 14.47696316 19.75 16.25 C24.09721889 19.97121937 28.0846465 24.02795507 32.08105469 28.11816406 C34.87566498 30.95782077 37.72650052 33.66207463 40.75170898 36.25610352 C44.76450773 39.7508882 48.56095586 43.41577928 52.31640625 47.18359375 C52.97656235 47.84279312 53.63671844 48.50199249 54.31687927 49.1811676 C55.70035506 50.56396835 57.08259083 51.94801076 58.46362305 53.33325195 C60.55731669 55.43230343 62.65629874 57.5259594 64.75585938 59.61914062 C66.10969571 60.97363786 67.46322175 62.32844531 68.81640625 63.68359375 C69.43326797 64.29843124 70.0501297 64.91326874 70.6856842 65.54673767 C74.42802099 69.308924 77.98329343 73.18851395 81.44702148 77.20890808 C83.7147728 79.82436671 86.07713833 82.34278436 88.4375 84.875 C103.71374776 101.42184696 103.71374776 101.42184696 104.25 108.125 C104 111 104 111 102 113 C98.63089944 113.39175588 96.68941645 113.41990635 93.76171875 111.63671875 C88.81834112 106.99124712 84.46618929 102.10321775 80.25 96.7890625 C78.08294425 94.10281631 75.82844969 91.54674185 73.5 89 C69.58108748 84.70008209 65.90829131 80.24080453 62.25 75.71875 C60.06498431 73.07852271 57.80828609 70.5327028 55.5 68 C51.58108748 63.70008209 47.90829131 59.24080453 44.25 54.71875 C41.35288632 51.21807097 38.29929566 47.87660232 35.23828125 44.51953125 C32.97152842 41.96795083 30.82459913 39.34828468 28.6875 36.6875 C17.00422857 21.59732282 17.00422857 21.59732282 1 12 C-6.93090528 11.33909123 -11.47531194 13.83900706 -17.5 18.75 C-19.91214759 20.90790185 -22.05396687 23.15639909 -24.14453125 25.625 C-28.27631572 30.38967842 -32.70712621 34.8151414 -37.1875 39.25 C-38.04883545 40.10754883 -38.9101709 40.96509766 -39.79760742 41.84863281 C-43.45013983 45.48494939 -47.10863635 49.11524371 -50.76660156 52.74609375 C-53.45065156 55.41197597 -56.13163241 58.0809181 -58.8125 60.75 C-59.62936279 61.55856445 -60.44622559 62.36712891 -61.2878418 63.20019531 C-65.43813791 67.33286353 -69.39523131 71.54642526 -73.21447754 75.98516846 C-76.61252976 79.81962193 -80.26431565 83.4064712 -83.890625 87.0234375 C-84.71705505 87.85082428 -85.54348511 88.67821106 -86.3949585 89.53067017 C-88.12828862 91.26467646 -89.86286482 92.99743796 -91.59863281 94.72900391 C-94.25962689 97.38460739 -96.91519796 100.04555071 -99.5703125 102.70703125 C-101.26009582 104.39615436 -102.95018901 106.08496756 -104.640625 107.7734375 C-105.43438538 108.56922211 -106.22814575 109.36500671 -107.04595947 110.18490601 C-107.78392761 110.91972198 -108.52189575 111.65453796 -109.28222656 112.41162109 C-109.92951721 113.05811615 -110.57680786 113.70461121 -111.24371338 114.37069702 C-113 116 -113 116 -116 118 C-119.1875 117.625 -119.1875 117.625 -122 117 C-121.17702059 110.2985962 -116.52633532 106.63809669 -112 102 C-111.41750488 101.4023584 -110.83500977 100.8047168 -110.23486328 100.18896484 C-108.30961784 98.22287331 -106.37600795 96.26551412 -104.4375 94.3125 C-103.82503418 93.6952002 -103.21256836 93.07790039 -102.58154297 92.44189453 C-99.56466926 89.43625685 -96.50246337 86.5382156 -93.26617432 83.7693634 C-88.99206863 80.04525178 -84.98293715 76.10342074 -80.99511719 72.0769043 C-80.23959564 71.31831619 -79.4840741 70.55972809 -78.70565796 69.77815247 C-77.07971972 68.1451073 -75.45491219 66.51093569 -73.83113861 64.87573814 C-71.26138228 62.28848436 -68.68800519 59.70488272 -66.11358643 57.12226868 C-58.79962285 49.78393468 -51.49140497 42.43989784 -44.1875 35.09155273 C-39.70862863 30.58593556 -35.22492803 26.08517153 -30.73819733 21.58738136 C-29.03144649 19.8744187 -27.32659601 18.15956042 -25.62368011 16.44278526 C-23.24940861 14.04934629 -20.86908559 11.66208589 -18.48730469 9.27612305 C-17.78489655 8.56495331 -17.0824884 7.85378357 -16.35879517 7.12106323 C-15.70855377 6.47212601 -15.05831238 5.82318878 -14.3883667 5.15458679 C-13.8272456 4.59032329 -13.2661245 4.02605978 -12.68799973 3.44469738 C-8.65051692 -0.01083685 -5.27606057 -0.53654853 0 0 Z " fill="#E46863" transform="translate(261,122)"/>
<path d="M0 0 C10.89 0 21.78 0 33 0 C36 3 36 3 36.31480408 5.41136169 C36.28560379 6.36027786 36.2564035 7.30919403 36.22631836 8.28686523 C36.18533524 9.89801712 36.18533524 9.89801712 36.14352417 11.54171753 C36.09616119 12.68295074 36.04879822 13.82418396 36 15 C35.95996857 16.1247171 35.91993713 17.2494342 35.87869263 18.40823364 C35.73407016 22.07686712 35.56032964 25.74316389 35.37890625 29.41015625 C35.31390961 30.75344721 35.24904711 32.09674468 35.18431091 33.44004822 C35.0492508 36.22762987 34.91198112 39.01509179 34.77319336 41.80249023 C34.5956769 45.3731363 34.42477661 48.94406577 34.25558567 52.51511478 C34.12386268 55.27673594 33.98821803 58.03815397 33.85142326 60.79952812 C33.75536776 62.75539715 33.6630023 64.71144627 33.57069397 66.66749573 C33.48071388 68.44095619 33.48071388 68.44095619 33.38891602 70.25024414 C33.33784195 71.2910463 33.28676788 72.33184845 33.23414612 73.40419006 C33 76 33 76 32 79 C21.44 79 10.88 79 0 79 C0 52.93 0 26.86 0 0 Z " fill="#A97474" transform="translate(259,383)"/>
<path d="M0 0 C5.21105312 2.55745411 8.19406558 7.00460975 10.22265625 12.32421875 C13.72986778 24.39678106 13.16407734 36.9150585 13.01464844 49.36035156 C13.00079102 50.58979492 12.98693359 51.81923828 12.97265625 53.0859375 C12.95468994 54.2001709 12.93672363 55.3144043 12.91821289 56.46240234 C12.70837873 58.93636589 12.70837873 58.93636589 14 60 C14.47196252 66.37149408 14.47196252 66.37149408 12.72169495 68.70230103 C9.73010925 70.95715906 6.06726333 70.42546388 2.46484375 70.3984375 C1.63038223 70.40130768 0.79592072 70.40417786 -0.06382751 70.40713501 C-1.82649413 70.40917541 -3.5891834 70.40364721 -5.35180664 70.39111328 C-8.05601336 70.37503856 -10.75873005 70.39097257 -13.46289062 70.41015625 C-15.17448248 70.40817421 -16.8860734 70.40433134 -18.59765625 70.3984375 C-19.40912613 70.40451019 -20.22059601 70.41058289 -21.05665588 70.4168396 C-23.33227539 70.38818359 -23.33227539 70.38818359 -27 70 C-29.30163882 66.54754176 -29.34490322 65.05261287 -29 61 C-28.34 60.34 -27.68 59.68 -27 59 C-26.75391833 55.77641255 -26.75391833 55.77641255 -26.875 51.97265625 C-26.88257324 51.26910507 -26.89014648 50.56555389 -26.89794922 49.84068298 C-26.93051136 46.83319112 -26.98603665 43.82624533 -27.04101562 40.8190918 C-27.46465026 15.48183863 -27.46465026 15.48183863 -19 5 C-13.6148666 -0.2319458 -7.30078187 -1.50374313 0 0 Z " fill="#110F0D" transform="translate(130,261)"/>
<path d="M0 0 C4.99517273 2.23677646 7.26783025 6.04318727 9.375 10.9375 C11.87092239 17.61137942 12.15345157 24.48001842 12.28125 31.5234375 C12.31899821 33.13671904 12.35675898 34.75000028 12.39453125 36.36328125 C12.44841417 38.88490297 12.50064567 41.40655324 12.55224609 43.92822266 C12.60377879 46.3767348 12.66104094 48.82506441 12.71875 51.2734375 C12.73232544 52.03377289 12.74590088 52.79410828 12.7598877 53.57748413 C12.53037414 57.08317724 12.53037414 57.08317724 14 60 C14.46037517 66.21506483 14.46037517 66.21506483 13.00195312 68.70166016 C9.80935922 70.7721741 6.40281927 70.42695768 2.71875 70.3984375 C1.5039093 70.40274277 1.5039093 70.40274277 0.26452637 70.40713501 C-1.44686584 70.40917542 -3.15828138 70.40364709 -4.86962891 70.39111328 C-7.4904389 70.37505857 -10.10970677 70.39096194 -12.73046875 70.41015625 C-14.39323257 70.40817381 -16.05599544 70.40433013 -17.71875 70.3984375 C-18.50318481 70.40451019 -19.28761963 70.41058289 -20.0958252 70.4168396 C-25.46436839 70.34737669 -25.46436839 70.34737669 -28.00195312 68.70166016 C-29.65878379 65.87678008 -29.23548576 63.17905771 -29 60 C-28.505 59.505 -28.505 59.505 -28 59 C-27.86438682 56.52520254 -27.78936869 54.07446711 -27.75390625 51.59765625 C-27.7209183 50.05142769 -27.68770763 48.50520386 -27.65429688 46.95898438 C-27.60724454 44.52372129 -27.56292367 42.08847002 -27.52319336 39.65307617 C-27.0665613 12.97974851 -27.0665613 12.97974851 -18.41015625 4.4296875 C-12.55933655 -0.57712643 -7.552768 -0.9767344 0 0 Z " fill="#0B0907" transform="translate(399,349)"/>
<path d="M0 0 C4.2281063 1.82594325 6.29840818 4.54731755 8.2734375 8.63671875 C11.18029935 16.19249795 12.13585433 23.35723828 12.28125 31.42578125 C12.31900647 33.0423178 12.356767 34.65885426 12.39453125 36.27539062 C12.44837975 38.80799933 12.50057406 41.34063702 12.55224609 43.87329102 C12.60379309 46.32839418 12.66106074 48.78331599 12.71875 51.23828125 C12.73232544 52.00175369 12.74590088 52.76522614 12.7598877 53.55183411 C12.52794938 57.0710307 12.52794938 57.0710307 14 60 C14.46037517 66.21506483 14.46037517 66.21506483 13.00195312 68.70166016 C9.80935922 70.7721741 6.40281927 70.42695768 2.71875 70.3984375 C1.5039093 70.40274277 1.5039093 70.40274277 0.26452637 70.40713501 C-1.44686584 70.40917542 -3.15828138 70.40364709 -4.86962891 70.39111328 C-7.4904389 70.37505857 -10.10970677 70.39096194 -12.73046875 70.41015625 C-14.39323257 70.40817381 -16.05599544 70.40433013 -17.71875 70.3984375 C-18.50318481 70.40451019 -19.28761963 70.41058289 -20.0958252 70.4168396 C-25.46436839 70.34737669 -25.46436839 70.34737669 -28.00195312 68.70166016 C-29.65878379 65.87678008 -29.23548576 63.17905771 -29 60 C-28.505 59.505 -28.505 59.505 -28 59 C-27.86438682 56.52520254 -27.78936869 54.07446711 -27.75390625 51.59765625 C-27.7209183 50.05142769 -27.68770763 48.50520386 -27.65429688 46.95898438 C-27.60724454 44.52372129 -27.56292367 42.08847002 -27.52319336 39.65307617 C-27.0665613 12.97974851 -27.0665613 12.97974851 -18.41015625 4.4296875 C-12.55466478 -0.58112427 -7.55711137 -0.96761989 0 0 Z " fill="#0D0B0A" transform="translate(78,349)"/>
<path d="M0 0 C5.61146742 2.70181765 8.73191783 6.41708591 10.8112793 12.29223633 C13.49388164 21.88178858 13.52201302 31.30933221 13.625 41.1875 C13.66153941 43.73588342 13.70202222 46.2841148 13.74765015 48.83235168 C13.77482325 50.40589851 13.79619776 51.97955839 13.81118774 53.55326843 C13.54184481 57.07067028 13.54184481 57.07067028 15 60 C15.47193784 66.37116079 15.47193784 66.37116079 13.72169495 68.70329285 C10.72909611 70.95719057 7.06584454 70.40425288 3.46484375 70.36328125 C2.21315147 70.36402901 2.21315147 70.36402901 0.93617249 70.36479187 C-0.82651147 70.3624526 -2.58919884 70.3527327 -4.35180664 70.33618164 C-7.05580354 70.3125585 -9.75881657 70.31562533 -12.46289062 70.32226562 C-14.17448507 70.31668988 -15.88607535 70.30958065 -17.59765625 70.30078125 C-18.40912613 70.30169266 -19.22059601 70.30260406 -20.05665588 70.30354309 C-25.76896437 70.23103563 -25.76896437 70.23103563 -28 68 C-28.1875 64.4375 -28.1875 64.4375 -28 61 C-27.505 60.505 -27.505 60.505 -27 60 C-26.86433395 57.45249311 -26.7893457 54.9283755 -26.75390625 52.37890625 C-26.72092 50.78710487 -26.6877093 49.19530812 -26.65429688 47.60351562 C-26.60723039 45.09582307 -26.56290606 42.58814235 -26.52319336 40.08032227 C-26.09201907 14.13499042 -26.09201907 14.13499042 -18 5 C-12.65461522 0.09050497 -7.1373549 -1.28137076 0 0 Z " fill="#0D0B09" transform="translate(398,261)"/>
<path d="M0 0 C1.03769531 -0.02578125 2.07539063 -0.0515625 3.14453125 -0.078125 C6.61053743 0.29561636 8.40024588 1.19343229 11.1875 3.25 C21.18427223 16.10299286 19.38831261 34.22398942 19.20166016 49.60961914 C19.18111572 51.45414673 19.18111572 51.45414673 19.16015625 53.3359375 C19.14218994 54.4501709 19.12422363 55.5644043 19.10571289 56.71240234 C18.89587873 59.18636589 18.89587873 59.18636589 20.1875 60.25 C20.64787517 66.46506483 20.64787517 66.46506483 19.18945312 68.95166016 C15.99685922 71.0221741 12.59031927 70.67695768 8.90625 70.6484375 C7.6914093 70.65274277 7.6914093 70.65274277 6.45202637 70.65713501 C4.74063416 70.65917542 3.02921862 70.65364709 1.31787109 70.64111328 C-1.3029389 70.62505857 -3.92220677 70.64096194 -6.54296875 70.66015625 C-8.20573257 70.65817381 -9.86849544 70.65433013 -11.53125 70.6484375 C-12.31568481 70.65451019 -13.10011963 70.66058289 -13.9083252 70.6668396 C-19.29126951 70.59719036 -19.29126951 70.59719036 -21.81445312 68.91650391 C-23.35008201 66.35236429 -23.06070886 64.16645407 -22.8125 61.25 C-22.4825 60.59 -22.1525 59.93 -21.8125 59.25 C-21.1525 59.25 -20.4925 59.25 -19.8125 59.25 C-19.83868408 58.03006348 -19.86486816 56.81012695 -19.8918457 55.55322266 C-19.98297473 50.98733164 -20.03997541 46.42151947 -20.0871582 41.85498047 C-20.11216047 39.88609253 -20.146174 37.91729607 -20.18969727 35.94873047 C-20.65310676 14.43562635 -20.65310676 14.43562635 -14.8125 7.25 C-10.06297919 2.415786 -6.88821068 0.10192174 0 0 Z " fill="#0E0C0A" transform="translate(444.8125,348.75)"/>
<path d="M0 0 C7.32455572 6.62697898 9.39892862 15.16266297 9.94311523 24.80419922 C10.13665507 29.72222037 10.19869276 34.64128079 10.25 39.5625 C10.28653941 42.11088342 10.32702222 44.6591148 10.37265015 47.20735168 C10.39982325 48.78089851 10.42119776 50.35455839 10.43618774 51.92826843 C10.16684481 55.44567028 10.16684481 55.44567028 11.625 58.375 C12.09693784 64.74616079 12.09693784 64.74616079 10.34669495 67.07829285 C7.35409611 69.33219057 3.69084454 68.77925288 0.08984375 68.73828125 C-1.16184853 68.73902901 -1.16184853 68.73902901 -2.43882751 68.73979187 C-4.20151147 68.7374526 -5.96419884 68.7277327 -7.72680664 68.71118164 C-10.43080354 68.6875585 -13.13381657 68.69062533 -15.83789062 68.69726562 C-17.54948507 68.69168988 -19.26107535 68.68458065 -20.97265625 68.67578125 C-21.78412613 68.67669266 -22.59559601 68.67760406 -23.43165588 68.67854309 C-29.14396437 68.60603563 -29.14396437 68.60603563 -31.375 66.375 C-31.5625 62.8125 -31.5625 62.8125 -31.375 59.375 C-30.88 58.88 -30.88 58.88 -30.375 58.375 C-30.25168966 55.75475082 -30.18883213 53.15685977 -30.1640625 50.53515625 C-30.13595556 48.89777712 -30.10729094 47.26040748 -30.078125 45.62304688 C-30.03714309 43.04289406 -30.00026225 40.46291124 -29.97363281 37.88256836 C-29.82512187 24.64076911 -29.46002071 12.89562539 -20.375 2.375 C-14.60277253 -2.87376566 -6.88369393 -3.31437115 0 0 Z " fill="#12100E" transform="translate(80.375,262.625)"/>
<path d="M0 0 C4.65501631 1.99500699 7.10019026 4.67167454 9.12109375 9.34765625 C13.43628431 22.36994244 13.27598834 35.56232043 13.06542969 49.10595703 C13.03690918 51.0025708 13.03690918 51.0025708 13.0078125 52.9375 C12.98348145 54.08089844 12.95915039 55.22429687 12.93408203 56.40234375 C12.69974397 58.92939113 12.69974397 58.92939113 14 60 C14.46037517 66.21506483 14.46037517 66.21506483 13.00195312 68.70166016 C9.80935922 70.7721741 6.40281927 70.42695768 2.71875 70.3984375 C1.5039093 70.40274277 1.5039093 70.40274277 0.26452637 70.40713501 C-1.44686584 70.40917542 -3.15828138 70.40364709 -4.86962891 70.39111328 C-7.4904389 70.37505857 -10.10970677 70.39096194 -12.73046875 70.41015625 C-14.39323257 70.40817381 -16.05599544 70.40433013 -17.71875 70.3984375 C-18.50318481 70.40451019 -19.28761963 70.41058289 -20.0958252 70.4168396 C-25.47876951 70.34719036 -25.47876951 70.34719036 -28.00195312 68.66650391 C-29.53758201 66.10236429 -29.24820886 63.91645407 -29 61 C-28.67 60.34 -28.34 59.68 -28 59 C-27.34 59 -26.68 59 -26 59 C-26.01047363 57.89599854 -26.02094727 56.79199707 -26.03173828 55.65454102 C-26.06818892 51.52273862 -26.09099091 47.39095017 -26.10986328 43.2590332 C-26.11986411 41.47743329 -26.13346916 39.69584956 -26.15087891 37.91430664 C-26.17538957 35.33996567 -26.18654248 32.76584343 -26.1953125 30.19140625 C-26.20563507 29.40665421 -26.21595764 28.62190216 -26.22659302 27.81336975 C-26.2284822 18.30745789 -24.582324 11.04340466 -18 4 C-12.72747526 -1.02145214 -6.91339271 -0.91165618 0 0 Z " fill="#0C0A08" transform="translate(130,349)"/>
<path d="M0 0 C4.90000706 2.35926266 7.4780861 5.21705984 10 10 C12.83311566 18.3728686 14.1442041 26.58635307 14.0625 35.4296875 C14.05871338 36.10548859 14.05492676 36.78128967 14.05102539 37.47756958 C14.03892532 39.6101151 14.02027258 41.74251753 14 43.875 C13.97348563 46.70572496 13.95349732 49.53638591 13.9375 52.3671875 C13.92589844 53.61612793 13.91429687 54.86506836 13.90234375 56.15185547 C13.67222264 58.89970953 13.67222264 58.89970953 15 60 C15.47196252 66.37149408 15.47196252 66.37149408 13.72169495 68.70230103 C10.73010925 70.95715906 7.06726333 70.42546388 3.46484375 70.3984375 C2.63038223 70.40130768 1.79592072 70.40417786 0.93617249 70.40713501 C-0.82649413 70.40917541 -2.5891834 70.40364721 -4.35180664 70.39111328 C-7.05601336 70.37503856 -9.75873005 70.39097257 -12.46289062 70.41015625 C-14.17448248 70.40817421 -15.8860734 70.40433134 -17.59765625 70.3984375 C-18.40912613 70.40451019 -19.22059601 70.41058289 -20.05665588 70.4168396 C-22.33227539 70.38818359 -22.33227539 70.38818359 -26 70 C-28.30163882 66.54754176 -28.34490322 65.05261287 -28 61 C-27.34 60.34 -26.68 59.68 -26 59 C-25.8268336 56.0573054 -25.77167148 53.20016648 -25.796875 50.2578125 C-25.78631169 48.45051371 -25.77455267 46.64322159 -25.76171875 44.8359375 C-25.75147658 41.99446613 -25.7497941 39.15392622 -25.77001953 36.3125 C-25.88546185 15.10090466 -25.88546185 15.10090466 -19 6 C-13.36999288 0.58107877 -7.78967373 -1.53935631 0 0 Z " fill="#100E0C" transform="translate(450,261)"/>
<path d="M0 0 C9.57 0 19.14 0 29 0 C29 25.41 29 50.82 29 77 C18.44 77 7.88 77 -3 77 C-3.06773076 67.40341909 -3.12278995 57.80699649 -3.15543652 48.21023083 C-3.17110387 43.75424011 -3.19236152 39.29842115 -3.22631836 34.8425293 C-3.25887388 30.5437024 -3.27684495 26.24504088 -3.28463173 21.94610023 C-3.29018211 20.30460315 -3.30102049 18.66311529 -3.31719017 17.02168846 C-3.33891431 14.7254404 -3.3419691 12.42987892 -3.34057617 10.13354492 C-3.34723801 8.82560471 -3.35389984 7.51766449 -3.36076355 6.17008972 C-3 3 -3 3 0 0 Z " fill="#AD7777" transform="translate(226,384)"/>
<path d="M0 0 C8.07052876 5.91511844 15.051 12.18080109 20 21 C20.50402344 21.84304687 21.00804687 22.68609375 21.52734375 23.5546875 C27.10311697 34.45910825 26.84025844 48.66223132 23.55712891 60.30883789 C21.22103907 67.39166346 17.79947641 73.3305574 13 79 C12.37738281 79.76828125 11.75476563 80.5365625 11.11328125 81.328125 C3.98121376 89.31604059 -7.18954206 95.92461413 -18 97 C-35.23600557 97.96477103 -49.73292977 95.20924549 -63.25 83.8125 C-73.81051166 73.805158 -79.87353574 60.45285339 -80.34399414 45.92236328 C-80.550469 30.62371417 -76.59494373 18.48610722 -66 7 C-46.61441263 -12.09097358 -22.3630518 -15.19469733 0 0 Z M-64.6875 16.0234375 C-72.37304918 26.66792311 -74.23706062 38.18758642 -73 51 C-70.52720427 63.65571297 -64.50863881 74.71696088 -54.05859375 82.43359375 C-42.98566092 89.73609544 -30.88784881 91.18177718 -17.8046875 89.76171875 C-9.41400655 88.02389989 -0.48798376 83.58558052 5 77 C5.53882813 76.47277344 6.07765625 75.94554687 6.6328125 75.40234375 C15.20879099 66.65930075 18.59886527 56.50541307 18.8125 44.5 C18.66830813 31.99107574 14.10220539 22.14801887 5.34765625 13.08984375 C-4.76431637 4.08833734 -17.26031845 -4.17279495 -31.31640625 -3.41796875 C-44.06310848 -1.43267452 -56.46591151 6.1651439 -64.6875 16.0234375 Z " fill="#080604" transform="translate(285,215)"/>
<path d="M0 0 C1.30888687 -0.00630432 2.61777374 -0.01260864 3.96632385 -0.019104 C5.39934421 -0.01552161 6.83236335 -0.011419 8.26538086 -0.00683594 C9.73929407 -0.00818404 11.21320684 -0.01012579 12.68711853 -0.01263428 C15.78152689 -0.01558515 18.87581989 -0.01129345 21.97021484 -0.00195312 C25.91180537 0.00937154 29.8531214 0.00292651 33.79470158 -0.00909805 C36.84301258 -0.01637769 39.89126022 -0.01399975 42.93957329 -0.00884247 C44.39104686 -0.00751912 45.84252641 -0.00910696 47.293993 -0.01380157 C67.71219863 -0.06529539 67.71219863 -0.06529539 72.90582275 4.01872253 C75.02099084 6.70792864 75.16007974 7.94959088 75.13769531 11.33325195 C75.14062088 12.34694351 75.14354645 13.36063507 75.14656067 14.40504456 C75.12029854 16.05161293 75.12029854 16.05161293 75.09350586 17.73144531 C75.08857368 19.45807655 75.08857368 19.45807655 75.08354187 21.21958923 C75.06778415 24.92053376 75.02388724 28.62057994 74.98022461 32.32128906 C74.96872396 34.72427618 74.95894155 37.12727217 74.95092773 39.53027344 C74.86701784 55.78688529 74.36614868 72.01782155 73.66772461 88.25878906 C72.01772461 88.25878906 70.36772461 88.25878906 68.66772461 88.25878906 C68.72307373 87.10169434 68.77842285 85.94459961 68.83544922 84.75244141 C69.32314709 74.55211084 69.80871979 64.35168243 70.29193115 54.15113831 C70.53108627 49.10996374 70.77418683 44.06902003 71.02319336 39.02832031 C71.26431438 34.10601276 71.48049346 29.18343055 71.66772461 24.25878906 C71.69640625 23.57606934 71.72508789 22.89334961 71.75463867 22.18994141 C71.82670778 20.33849512 71.87318812 18.48610216 71.91772461 16.63378906 C71.94350586 15.67214844 71.96928711 14.71050781 71.99584961 13.71972656 C71.58194715 10.61545814 70.89411623 9.46417902 68.66772461 7.25878906 C65.57979899 6.64182459 65.57979899 6.64182459 61.98071289 6.7253418 C61.30555634 6.71672623 60.63039978 6.70811066 59.93478394 6.69923401 C57.70214525 6.67652567 55.47075721 6.68332209 53.23803711 6.69238281 C51.68488186 6.68714831 50.1317298 6.68087247 48.57858276 6.67359924 C45.32184911 6.66318538 42.06555209 6.6677687 38.80883789 6.68237305 C34.6398952 6.69953964 30.47233348 6.67609898 26.303545 6.64088345 C23.09494939 6.61889317 19.88668318 6.62035509 16.67803574 6.62864876 C15.14147301 6.62946785 13.604886 6.62261232 12.06839371 6.60787773 C9.91591601 6.59040495 7.76590501 6.60499244 5.61352539 6.62768555 C4.39013458 6.62864731 3.16674377 6.62960907 1.90628052 6.63059998 C-2.2998529 7.44647198 -3.77436793 8.86816157 -6.33227539 12.25878906 C-7.07294321 14.81884863 -7.07294321 14.81884863 -6.97583008 17.55786133 C-6.99224548 18.5940712 -7.00866089 19.63028107 -7.02557373 20.69789124 C-7.01850403 21.81240158 -7.01143433 22.92691193 -7.00415039 24.07519531 C-7.01690002 25.24146957 -7.02964966 26.40774384 -7.04278564 27.60935974 C-7.07909238 31.34691369 -7.08179326 35.08357466 -7.08227539 38.82128906 C-7.10405984 42.49438863 -7.13283735 46.16738191 -7.16271973 49.84042358 C-7.18191209 52.2351169 -7.19829766 54.62983445 -7.21179199 57.02456665 C-7.2831251 67.12320899 -7.7053555 77.18068736 -8.33227539 87.25878906 C-9.98227539 87.25878906 -11.63227539 87.25878906 -13.33227539 87.25878906 C-13.42503598 77.062171 -13.49607118 66.86565365 -13.53952408 56.66869926 C-13.56038144 51.93360341 -13.58866518 47.19879667 -13.6340332 42.46386719 C-13.67755712 37.89269298 -13.70142643 33.32179652 -13.71178436 28.75043106 C-13.719164 27.00812535 -13.73357486 25.2658345 -13.75519562 23.52364731 C-13.78431729 21.07939796 -13.78822784 18.63629 -13.78637695 16.19189453 C-13.80075806 15.47475784 -13.81513916 14.75762115 -13.82995605 14.01875305 C-13.78874317 8.97481659 -12.51296122 6.1319428 -9.33227539 2.25878906 C-5.76840965 -0.11712143 -4.22899203 0.00583403 0 0 Z " fill="#894C4C" transform="translate(226.332275390625,373.7412109375)"/>
<path d="M0 0 C3.99538914 2.15804464 7.70413344 4.53622384 11.3359375 7.26171875 C12.03847656 7.78636719 12.74101562 8.31101563 13.46484375 8.8515625 C18.86633781 13.2076061 22.20000303 18.107081 25.3359375 24.26171875 C25.67753906 24.90882813 26.01914062 25.5559375 26.37109375 26.22265625 C30.54267513 35.41953799 28.83220411 45.96073622 25.66015625 55.1875 C21.18198518 65.58372606 13.83107395 73.52224302 3.5234375 78.19921875 C-6.81393912 81.81730057 -18.99896928 82.15492508 -29.2890625 78.19921875 C-38.33861287 73.6870826 -44.7948262 68.15658506 -49.6640625 59.26171875 C-50.07785156 58.55917969 -50.49164063 57.85664063 -50.91796875 57.1328125 C-55.59477128 47.76291197 -55.12574404 34.56469534 -52.5390625 24.57421875 C-50.76640558 19.80295527 -48.00189083 16.06048527 -44.6640625 12.26171875 C-44.18453125 11.66617188 -43.705 11.070625 -43.2109375 10.45703125 C-32.77924635 -1.39716324 -14.51323839 -6.69299829 0 0 Z M-42.5859375 15.46484375 C-44.14250447 17.668696 -45.43973219 19.8588664 -46.6640625 22.26171875 C-47.00179687 22.91269531 -47.33953125 23.56367188 -47.6875 24.234375 C-51.52473093 33.36980093 -51.14217246 45.58467862 -47.6640625 54.76171875 C-42.7559962 64.7697869 -35.84086674 70.83702126 -25.6640625 75.26171875 C-16.49284203 77.91288518 -4.60245248 77.83720326 4.0234375 73.76171875 C14.32793245 67.60204858 19.43926283 59.84824765 23.6484375 48.82421875 C25.65642376 38.41919906 24.25108782 29.70196302 18.7109375 20.69921875 C12.42800002 11.83827006 2.31857018 3.23902248 -8.6640625 1.26171875 C-21.971257 -0.0349887 -33.77114966 5.36008695 -42.5859375 15.46484375 Z " fill="#0F0B0B" transform="translate(270.6640625,219.73828125)"/>
<path d="M0 0 C0.69222656 0.19980469 1.38445312 0.39960937 2.09765625 0.60546875 C1.16175121 1.71098765 0.22385767 2.81482328 -0.71484375 3.91796875 C-1.23691406 4.53285156 -1.75898438 5.14773437 -2.296875 5.78125 C-3.90234375 7.60546875 -3.90234375 7.60546875 -5.5390625 8.8359375 C-7.27008119 10.74601455 -7.27008119 10.74601455 -7.1796875 14.47265625 C-7.52935791 18.23053928 -7.81352774 18.52038855 -10.78125 21.36328125 C-11.99230854 22.17790281 -13.22133386 22.96629977 -14.46484375 23.73046875 C-15.74954656 24.57162195 -17.03340631 25.41406422 -18.31640625 26.2578125 C-18.93676758 26.65597168 -19.55712891 27.05413086 -20.19628906 27.46435547 C-22.37754918 28.92331508 -24.3436618 30.59266357 -26.33984375 32.29296875 C-28.99550932 34.26095671 -29.70818523 34.5942673 -33.15234375 34.79296875 C-38.55664728 33.08160596 -43.72603704 30.90888274 -48.90234375 28.60546875 C-44.75795073 24.09490446 -40.11775166 20.8571077 -35.02734375 17.48046875 C-30.13683696 14.22576025 -25.29274718 10.99941986 -20.7421875 7.27734375 C-13.92463423 1.74008217 -9.22384651 -1.81074194 0 0 Z " fill="#F8F8F8" transform="translate(332.90234375,46.39453125)"/>
<path d="M0 0 C3.23964196 0.80991049 6.36445319 1.72784873 9.5 2.875 C4.47782007 8.15595638 -1.18577462 12.29637209 -7.05859375 16.58203125 C-10.01329628 18.73837535 -12.85490272 20.97731827 -15.66015625 23.32421875 C-25.05046333 30.92558001 -31.8102886 33.28717032 -43.94140625 32.296875 C-45.11574219 32.15765625 -46.29007812 32.0184375 -47.5 31.875 C-47.5 31.215 -47.5 30.555 -47.5 29.875 C-45.734375 28.44555664 -45.734375 28.44555664 -43.25 26.78515625 C-42.33863281 26.17067627 -41.42726563 25.55619629 -40.48828125 24.9230957 C-39.50214844 24.26784912 -38.51601563 23.61260254 -37.5 22.9375 C-35.4789615 21.57843005 -33.45812974 20.2190526 -31.4375 18.859375 C-30.43203125 18.18583984 -29.4265625 17.51230469 -28.390625 16.81835938 C-24.40547997 14.13915714 -20.4505586 11.41733218 -16.5 8.6875 C-14.71142977 7.45302772 -12.92244373 6.21950446 -11.12695312 4.99511719 C-9.49717278 3.87305353 -7.88913118 2.71963171 -6.28125 1.56640625 C-3.5 -0.125 -3.5 -0.125 0 0 Z " fill="#56C9F3" transform="translate(308.5,41.125)"/>
<path d="M0 0 C3.4180671 1.16359731 6.65654492 2.49076066 9.9375 4 C7.08533945 7.02753072 4.16068944 9.3339925 0.68359375 11.609375 C-0.33669922 12.28226563 -1.35699219 12.95515625 -2.40820312 13.6484375 C-4.00051758 14.68871094 -4.00051758 14.68871094 -5.625 15.75 C-12.8678721 20.49735293 -19.98293368 25.32292203 -26.89819336 30.54003906 C-29.0625 32 -29.0625 32 -31.0625 32 C-32.34495814 27.24778011 -33.1871819 22.58376234 -31.0625 18 C-26.13998911 13.01196047 -19.69207047 9.73157156 -13.58569336 6.40576172 C-10.53832882 4.70796539 -7.63876424 2.82695141 -4.74243164 0.88500977 C-3.0625 0 -3.0625 0 0 0 Z " fill="#F9F9F9" transform="translate(292.0625,34)"/>
<path d="M0 0 C4.62 0 9.24 0 14 0 C14 8.91 14 17.82 14 27 C9.38 27 4.76 27 0 27 C0 18.09 0 9.18 0 0 Z " fill="#F5F5F5" transform="translate(376,380)"/>
<path d="M0 0 C4.62 0 9.24 0 14 0 C14 8.91 14 17.82 14 27 C9.38 27 4.76 27 0 27 C0 18.09 0 9.18 0 0 Z " fill="#F3F3F3" transform="translate(376,292)"/>
<path d="M0 0 C4.62 0 9.24 0 14 0 C14.02707263 3.37505428 14.04687449 6.7498894 14.0625 10.125 C14.07087891 11.07632812 14.07925781 12.02765625 14.08789062 13.0078125 C14.09111328 13.9359375 14.09433594 14.8640625 14.09765625 15.8203125 C14.10289307 16.66867676 14.10812988 17.51704102 14.11352539 18.39111328 C14 21 14 21 13 27 C8.71 27 4.42 27 0 27 C0 18.09 0 9.18 0 0 Z " fill="#F0F0F0" transform="translate(446,292)"/>
<path d="M0 0 C4.62 0 9.24 0 14 0 C14.02707263 3.37505428 14.04687449 6.7498894 14.0625 10.125 C14.07087891 11.07632812 14.07925781 12.02765625 14.08789062 13.0078125 C14.09111328 13.9359375 14.09433594 14.8640625 14.09765625 15.8203125 C14.10289307 16.66867676 14.10812988 17.51704102 14.11352539 18.39111328 C14 21 14 21 13 27 C8.71 27 4.42 27 0 27 C0 18.09 0 9.18 0 0 Z " fill="#F0F0F0" transform="translate(125,292)"/>
<path d="M0 0 C4.62 0 9.24 0 14 0 C14.02721831 3.0000624 14.04694378 5.99987256 14.0625 9 C14.07087891 9.83917969 14.07925781 10.67835938 14.08789062 11.54296875 C14.10824033 16.79319339 13.76368207 21.80455662 13 27 C8.71 27 4.42 27 0 27 C0 18.09 0 9.18 0 0 Z " fill="#F1F1F1" transform="translate(125,380)"/>
<path d="M0 0 C4.29 0 8.58 0 13 0 C13 8.91 13 17.82 13 27 C8.71 27 4.42 27 0 27 C0 18.09 0 9.18 0 0 Z " fill="#FDFDFD" transform="translate(429,380)"/>
<path d="M0 0 C4.29 0 8.58 0 13 0 C13 8.91 13 17.82 13 27 C8.71 27 4.42 27 0 27 C0 18.09 0 9.18 0 0 Z " fill="#FDFDFD" transform="translate(108,380)"/>
<path d="M0 0 C4.29 0 8.58 0 13 0 C13 8.91 13 17.82 13 27 C8.71 27 4.42 27 0 27 C0 18.09 0 9.18 0 0 Z " fill="#FDFDFD" transform="translate(56,380)"/>
<path d="M0 0 C4.29 0 8.58 0 13 0 C13 8.91 13 17.82 13 27 C8.71 27 4.42 27 0 27 C0 18.09 0 9.18 0 0 Z " fill="#F8F8F8" transform="translate(446,380)"/>
<path d="M0 0 C4.29 0 8.58 0 13 0 C13 8.91 13 17.82 13 27 C8.71 27 4.42 27 0 27 C0 18.09 0 9.18 0 0 Z " fill="#FAFAFA" transform="translate(394,380)"/>
<path d="M0 0 C4.29 0 8.58 0 13 0 C13 8.91 13 17.82 13 27 C8.71 27 4.42 27 0 27 C0 18.09 0 9.18 0 0 Z " fill="#FAFAFA" transform="translate(73,380)"/>
<path d="M0 0 C4.29 0 8.58 0 13 0 C13 8.91 13 17.82 13 27 C8.71 27 4.42 27 0 27 C0 18.09 0 9.18 0 0 Z " fill="#FAFAFA" transform="translate(394,292)"/>
<path d="M0 0 C4.29 0 8.58 0 13 0 C13 8.91 13 17.82 13 27 C8.71 27 4.42 27 0 27 C0 18.09 0 9.18 0 0 Z " fill="#F9F9F9" transform="translate(73,292)"/>
<path d="M0 0 C4.29 0 8.58 0 13 0 C13 8.58 13 17.16 13 26 C8.71 26 4.42 26 0 26 C0 17.42 0 8.84 0 0 Z " fill="#FFFFFF" transform="translate(429,293)"/>
<path d="M0 0 C4.29 0 8.58 0 13 0 C13 8.58 13 17.16 13 26 C8.71 26 4.42 26 0 26 C0 17.42 0 8.84 0 0 Z " fill="#FFFFFF" transform="translate(108,293)"/>
<path d="M0 0 C4.29 0 8.58 0 13 0 C13 8.58 13 17.16 13 26 C8.71 26 4.42 26 0 26 C0 17.42 0 8.84 0 0 Z " fill="#FFFFFF" transform="translate(56,293)"/>
<path d="M0 0 C1.65625 2.046875 1.65625 2.046875 3.5 4.75 C4.1084375 5.63171875 4.716875 6.5134375 5.34375 7.421875 C6.72685204 9.57481686 7.91843613 11.68545332 9 14 C-1.11703336 16.74138969 -10.64562753 18.32598222 -21 16 C-19.60228167 12.66739396 -18.10401673 11.04560571 -15.15625 8.984375 C-14.40472656 8.45585938 -13.65320313 7.92734375 -12.87890625 7.3828125 C-12.09386719 6.84398438 -11.30882812 6.30515625 -10.5 5.75 C-9.71496094 5.19570312 -8.92992187 4.64140625 -8.12109375 4.0703125 C-2.27628541 0 -2.27628541 0 0 0 Z " fill="#54C5EE" transform="translate(328,68)"/>
<path d="M0 0 C6 1 6 1 8.1875 2.875 C11.90501583 9.28451005 13 15.64896793 13 23 C8.71 23 4.42 23 0 23 C0 15.41 0 7.82 0 0 Z " fill="#F3F3F3" transform="translate(125,353)"/>
<path d="M0 0 C6 1 6 1 8.1875 2.8125 C11.73669831 9.05419358 13 15.87655338 13 23 C8.71 23 4.42 23 0 23 C0 15.41 0 7.82 0 0 Z " fill="#F4F4F4" transform="translate(73,353)"/>
<path d="M0 0 C6 1 6 1 8.25 3.1875 C12.19049266 9.52043463 12.46577737 15.69895737 13 23 C8.71 23 4.42 23 0 23 C0 15.41 0 7.82 0 0 Z " fill="#F5F5F5" transform="translate(446,353)"/>
<path d="M0 0 C0 7.59 0 15.18 0 23 C-4.29 23 -8.58 23 -13 23 C-13.60544614 15.49246787 -12.32097217 10.25138052 -8 4 C-5.63718534 1.7527264 -3.38823963 0 0 0 Z " fill="#F7F7F7" transform="translate(390,353)"/>
<path d="M0 0 C6 1 6 1 8.265625 3.1171875 C10.27829574 6.46257265 11.01843078 9.2964544 11.75 13.125 C11.99234375 14.34445312 12.2346875 15.56390625 12.484375 16.8203125 C13 20 13 20 13 23 C8.71 23 4.42 23 0 23 C0 15.41 0 7.82 0 0 Z " fill="#F6F6F6" transform="translate(394,353)"/>
<path d="M0 0 C5.84085234 1.16817047 6.65587192 2.30014432 10 7 C12.48217311 12.2537869 12.58469343 17.25492583 13 23 C8.71 23 4.42 23 0 23 C0 15.41 0 7.82 0 0 Z " fill="#F6F6F6" transform="translate(446,265)"/>
<path d="M0 0 C5.44939914 1.08987983 6.586341 1.84825257 10 6 C12.54598024 11.3465585 12.57354561 17.17178995 13 23 C8.71 23 4.42 23 0 23 C0 15.41 0 7.82 0 0 Z " fill="#F6F6F6" transform="translate(125,265)"/>
<path d="M0 0 C0 7.59 0 15.18 0 23 C-4.29 23 -8.58 23 -13 23 C-13.41938273 16.28987629 -13.00716356 11.54033919 -9 6 C-3.25586354 0 -3.25586354 0 0 0 Z " fill="#F9F9F9" transform="translate(442,353)"/>
<path d="M0 0 C0 7.59 0 15.18 0 23 C-4.29 23 -8.58 23 -13 23 C-13.41938273 16.28987629 -13.00716356 11.54033919 -9 6 C-3.25586354 0 -3.25586354 0 0 0 Z " fill="#F9F9F9" transform="translate(121,353)"/>
<path d="M0 0 C0 7.59 0 15.18 0 23 C-4.29 23 -8.58 23 -13 23 C-13.41938273 16.28987629 -13.00716356 11.54033919 -9 6 C-3.25586354 0 -3.25586354 0 0 0 Z " fill="#F9F9F9" transform="translate(69,353)"/>
<path d="M0 0 C0 7.59 0 15.18 0 23 C-4.29 23 -8.58 23 -13 23 C-13.41942915 16.28913359 -12.97365425 11.56069299 -9 6 C-3.16377171 0 -3.16377171 0 0 0 Z " fill="#F7F7F7" transform="translate(390,265)"/>
<path d="M0 0 C7.03846154 2.34615385 7.03846154 2.34615385 10 7 C12.28772363 12.1774798 12.54716855 17.41507879 13 23 C8.71 23 4.42 23 0 23 C0 15.41 0 7.82 0 0 Z " fill="#F9F9F9" transform="translate(394,265)"/>
<path d="M0 0 C0 7.59 0 15.18 0 23 C-4.29 23 -8.58 23 -13 23 C-13.58632625 15.61228924 -12.42578756 11.00127172 -8 5 C-2.625 0 -2.625 0 0 0 Z " fill="#F8F8F8" transform="translate(69,265)"/>
<path d="M0 0 C7.12367491 2.3745583 7.12367491 2.3745583 10 7 C11.046875 10.2265625 11.046875 10.2265625 11.75 13.625 C11.99234375 14.75164062 12.2346875 15.87828125 12.484375 17.0390625 C13 20 13 20 13 23 C8.71 23 4.42 23 0 23 C0 15.41 0 7.82 0 0 Z " fill="#FBFBFB" transform="translate(73,265)"/>
<path d="M0 0 C0.99 0 1.98 0 3 0 C4.47360305 2.94720609 4.14233596 5.93035368 4.1328125 9.16015625 C4.13424759 10.21776405 4.13424759 10.21776405 4.13571167 11.29673767 C4.13639229 12.78710011 4.13454621 14.27746552 4.13037109 15.76782227 C4.12501318 18.05687058 4.13032409 20.34572337 4.13671875 22.63476562 C4.1360581 24.0807296 4.13477722 25.52669346 4.1328125 26.97265625 C4.13483673 27.66118179 4.13686096 28.34970734 4.13894653 29.05909729 C4.11495764 33.88504236 4.11495764 33.88504236 3 35 C-4.96913417 35.8977745 -12.98591541 36.16619069 -21 36 C-20.67 34.68 -20.34 33.36 -20 32 C-10.1 31.505 -10.1 31.505 0 31 C-0.2475 28.586875 -0.2475 28.586875 -0.5 26.125 C-0.97042788 20.51346745 -1.11156688 14.93985639 -1.125 9.3125 C-1.12951172 8.51021973 -1.13402344 7.70793945 -1.13867188 6.88134766 C-1.12379769 1.12379769 -1.12379769 1.12379769 0 0 Z " fill="#171717" transform="translate(256,231)"/>
<path d="M0 0 C0 7.59 0 15.18 0 23 C-4.29 23 -8.58 23 -13 23 C-13.66018404 15.87001233 -11.90329896 10.99283672 -8 5 C-2.75609756 0 -2.75609756 0 0 0 Z " fill="#FAFAFA" transform="translate(442,265)"/>
<path d="M0 0 C0 7.59 0 15.18 0 23 C-4.29 23 -8.58 23 -13 23 C-13.66018404 15.87001233 -11.90329896 10.99283672 -8 5 C-2.75609756 0 -2.75609756 0 0 0 Z " fill="#F9F9F9" transform="translate(121,265)"/>
<path d="M0 0 C-1.1909932 3.57297961 -2.03332688 3.94245439 -5.1484375 5.8828125 C-5.98890625 6.41003906 -6.829375 6.93726563 -7.6953125 7.48046875 C-8.57960938 8.02316406 -9.46390625 8.56585938 -10.375 9.125 C-11.2515625 9.67542969 -12.128125 10.22585937 -13.03125 10.79296875 C-19.55088459 14.85029486 -19.55088459 14.85029486 -23 16 C-23 11.71 -23 7.42 -23 3 C-15.54870693 -1.49889393 -8.45273481 -2.42917379 0 0 Z " fill="#55C5EE" transform="translate(284,31)"/>
<path d="M0 0 C11.55 0 23.1 0 35 0 C35 1.32 35 2.64 35 4 C23.45 4 11.9 4 0 4 C0 2.68 0 1.36 0 0 Z " fill="#894C4C" transform="translate(426,411)"/>
<path d="M0 0 C11.55 0 23.1 0 35 0 C35 1.32 35 2.64 35 4 C23.45 4 11.9 4 0 4 C0 2.68 0 1.36 0 0 Z " fill="#894C4C" transform="translate(374,411)"/>
<path d="M0 0 C11.55 0 23.1 0 35 0 C35 1.32 35 2.64 35 4 C23.45 4 11.9 4 0 4 C0 2.68 0 1.36 0 0 Z " fill="#894C4C" transform="translate(105,411)"/>
<path d="M0 0 C11.55 0 23.1 0 35 0 C35 1.32 35 2.64 35 4 C23.45 4 11.9 4 0 4 C0 2.68 0 1.36 0 0 Z " fill="#894C4C" transform="translate(53,411)"/>
<path d="M0 0 C11.55 0 23.1 0 35 0 C35 1.32 35 2.64 35 4 C23.45 4 11.9 4 0 4 C0 2.68 0 1.36 0 0 Z " fill="#844A4A" transform="translate(426,323)"/>
<path d="M0 0 C11.55 0 23.1 0 35 0 C35 1.32 35 2.64 35 4 C23.45 4 11.9 4 0 4 C0 2.68 0 1.36 0 0 Z " fill="#844A4A" transform="translate(374,323)"/>
<path d="M0 0 C11.55 0 23.1 0 35 0 C35 1.32 35 2.64 35 4 C23.45 4 11.9 4 0 4 C0 2.68 0 1.36 0 0 Z " fill="#844A4A" transform="translate(105,323)"/>
<path d="M0 0 C11.55 0 23.1 0 35 0 C35 1.32 35 2.64 35 4 C23.45 4 11.9 4 0 4 C0 2.68 0 1.36 0 0 Z " fill="#844A4A" transform="translate(53,323)"/>
</svg>
